<?xml version="1.0" standalone="no"?>
<!DOCTYPE svg PUBLIC "-//W3C//DTD SVG 20010904//EN"
 "http://www.w3.org/TR/2001/REC-SVG-20010904/DTD/svg10.dtd">
<svg version="1.0" xmlns="http://www.w3.org/2000/svg"
 width="823.000000pt" height="429.000000pt" viewBox="0 0 823.000000 429.000000"
 preserveAspectRatio="xMidYMid meet">
<metadata>
Created by potrace 1.16, written by Peter Selinger 2001-2019
</metadata>
<g transform="translate(0.000000,429.000000) scale(0.100000,-0.100000)"
fill="#000000" stroke="none">
<path d="M1839 2956 c-285 -194 -439 -427 -439 -663 0 -267 156 -440 441 -487
l36 -6 -53 -236 c-29 -130 -55 -246 -58 -260 l-6 -24 98 0 98 0 43 193 c23
105 49 222 58 258 l15 66 78 7 c87 7 228 44 293 77 269 136 427 415 427 753 0
255 -94 372 -307 384 -244 13 -433 -162 -518 -480 -20 -77 -145 -621 -145
-633 0 -7 -77 18 -121 40 -182 93 -221 373 -89 636 45 88 145 214 224 281 39
33 75 64 80 69 9 8 -40 89 -53 89 -4 0 -50 -29 -102 -64z m742 -53 c16 -10 39
-38 52 -63 20 -40 22 -59 21 -185 -1 -117 -6 -156 -28 -240 -68 -257 -224
-450 -403 -497 -107 -29 -123 -30 -123 -7 0 28 137 627 162 708 45 146 116
258 183 287 42 19 102 17 136 -3z"/>
<path d="M3310 2305 c0 -128 1 -135 20 -135 19 0 20 7 20 93 l0 92 31 -47 c17
-27 38 -48 45 -48 8 0 29 21 47 46 l32 46 3 -91 c3 -83 4 -91 23 -91 19 0 19
6 17 132 -4 161 -12 170 -76 72 l-44 -66 -44 66 c-67 99 -74 93 -74 -69z"/>
<path d="M3631 2313 c-28 -70 -51 -131 -51 -135 0 -5 9 -8 19 -8 13 0 23 11
31 35 11 34 13 35 66 35 52 0 54 -1 68 -35 10 -23 22 -35 34 -35 18 0 15 13
-33 133 -31 80 -58 133 -67 135 -11 2 -29 -32 -67 -125z"/>
<path d="M4040 2305 c0 -125 2 -136 18 -133 13 2 18 15 20 61 l3 57 54 0 55 0
0 -60 c0 -53 2 -60 20 -60 19 0 20 7 20 135 0 127 -1 135 -20 135 -16 0 -19
-8 -22 -57 l-3 -58 -52 -3 -52 -3 -3 58 c-2 46 -7 59 -20 61 -16 3 -18 -8 -18
-133z"/>
<path d="M3344 2072 c-11 -7 -34 -45 -34 -56 0 -15 30 -4 40 14 19 36 80 20
80 -21 0 -9 -27 -40 -60 -69 -81 -70 -79 -80 15 -80 60 0 75 3 75 15 0 11 -12
15 -47 15 l-48 0 48 45 c55 52 64 89 30 128 -16 17 -78 23 -99 9z"/>
<path d="M3531 2063 c-28 -23 -41 -82 -30 -130 15 -71 84 -96 129 -48 17 18
25 40 28 78 4 46 1 57 -23 85 -31 37 -70 42 -104 15z"/>
<path d="M3706 2058 c-9 -12 -16 -28 -16 -35 0 -20 24 -15 38 7 21 34 82 21
82 -18 0 -8 -27 -39 -60 -69 -33 -31 -60 -62 -60 -69 0 -11 19 -14 75 -14 60
0 75 3 75 15 0 11 -12 15 -51 15 l-51 0 51 46 c57 51 66 89 31 124 -29 29 -94
27 -114 -2z"/>
<path d="M3901 2055 c-64 -82 -9 -219 76 -190 60 21 80 124 35 184 -28 38 -83
41 -111 6z"/>
<path d="M4230 2060 c-22 -22 -27 -50 -7 -50 7 0 18 9 25 20 21 34 82 21 82
-18 0 -8 -27 -39 -60 -69 -33 -31 -60 -62 -60 -69 0 -11 19 -14 75 -14 60 0
75 3 75 15 0 11 -12 15 -51 15 l-51 0 51 46 c42 38 51 52 51 79 0 60 -86 89
-130 45z"/>
<path d="M4421 2055 c-62 -80 -12 -213 73 -191 34 8 66 60 66 107 0 88 -91
143 -139 84z"/>
<path d="M4607 2062 c-10 -10 -17 -26 -17 -35 0 -24 27 -21 35 3 9 28 60 27
76 -1 10 -19 4 -28 -55 -85 -36 -35 -66 -68 -66 -73 0 -7 31 -11 80 -11 64 0
80 3 80 15 0 11 -12 15 -51 15 l-51 0 51 48 c57 53 65 88 31 122 -26 26 -90
27 -113 2z"/>
</g>
</svg>
